<svg width="355" height="50" viewBox="0 0 355 50" fill="none" xmlns="http://www.w3.org/2000/svg">
<path d="M126.38 38.2147C132.652 38.2147 135.789 35.0303 135.789 28.6615C135.789 22.4116 132.87 19.2867 127.033 19.2867H123.349V38.2147H126.38ZM127.132 15.7191C131.279 15.7191 134.508 16.8422 136.819 19.0885C139.13 21.3215 140.285 24.5324 140.285 28.721C140.285 32.8964 139.09 36.1204 136.7 38.3931C134.31 40.6658 130.87 41.8021 126.38 41.8021H119.09V15.7191H127.132Z" fill="white"/>
<path d="M156.412 26.1642C155.659 25.3185 154.609 24.8957 153.262 24.8957C151.915 24.8957 150.846 25.3185 150.053 26.1642C149.261 27.0098 148.786 28.2387 148.627 29.8507H157.581C157.554 28.2387 157.165 27.0098 156.412 26.1642ZM154.035 42.1589C150.971 42.1589 148.574 41.2604 146.845 39.4634C145.115 37.6664 144.25 35.1823 144.25 32.0111C144.25 28.8399 145.049 26.336 146.646 24.4993C148.258 22.6495 150.41 21.7245 153.104 21.7245C155.811 21.7245 157.917 22.5173 159.423 24.1029C160.941 25.6621 161.701 27.8357 161.701 30.6237V32.8832H148.568C148.621 34.7991 149.136 36.2724 150.113 37.303C151.09 38.3337 152.463 38.849 154.233 38.849C156.385 38.849 158.545 38.3733 160.71 37.4219V40.831C158.809 41.7163 156.584 42.1589 154.035 42.1589Z" fill="white"/>
<path d="M174.768 41.8021H170.232L162.745 22.0813H167.162L171.183 33.5372C171.87 35.4531 172.286 37.0123 172.431 38.2147H172.569C172.675 37.3559 173.091 35.7967 173.817 33.5372L177.819 22.0813H182.275L174.768 41.8021Z" fill="white"/>
<path d="M200.442 38.1751V41.8021H185.705V15.7191H200.442V19.3263H189.964V26.4219H199.789V29.9894H189.964V38.1751H200.442Z" fill="white"/>
<path d="M218.202 39.2255C216.855 41.1811 214.92 42.1589 212.398 42.1589C209.876 42.1589 207.921 41.267 206.535 39.4832C205.161 37.6862 204.474 35.1823 204.474 31.9714C204.474 28.7474 205.168 26.2303 206.554 24.42C207.954 22.623 209.922 21.7245 212.457 21.7245C214.993 21.7245 216.934 22.6825 218.281 24.5984H218.499C218.301 23.1714 218.202 22.0483 218.202 21.229V14.0542H222.401V41.8021H219.133L218.4 39.2255H218.202ZM213.388 25.1336C211.909 25.1336 210.773 25.7348 209.981 26.9372C209.189 28.1264 208.793 29.8243 208.793 32.0309C208.793 34.2375 209.182 35.9156 209.961 37.0652C210.74 38.2015 211.942 38.7697 213.566 38.7697C215.191 38.7697 216.392 38.2874 217.172 37.3228C217.964 36.345 218.373 34.7727 218.4 32.6057V32.0111C218.4 29.5402 217.99 27.7762 217.172 26.7192C216.353 25.6621 215.092 25.1336 213.388 25.1336Z" fill="white"/>
<path d="M245.584 41.8021H242.276L241.682 39.2255H241.484C240.89 40.1505 240.051 40.8706 238.968 41.3859C237.899 41.9012 236.677 42.1589 235.304 42.1589C232.914 42.1589 231.131 41.5643 229.956 40.3751C228.78 39.1859 228.193 37.3823 228.193 34.9643V22.0813H232.412V34.2309C232.412 35.7637 232.722 36.9066 233.343 37.6598C233.977 38.3997 234.947 38.7697 236.255 38.7697C238.024 38.7697 239.312 38.2478 240.117 37.2039C240.949 36.1468 241.365 34.3829 241.365 31.912V22.0813H245.584V41.8021Z" fill="white"/>
<path d="M259.521 42.1589C256.55 42.1589 254.285 41.2934 252.727 39.5625C251.168 37.8183 250.389 35.3012 250.389 32.0111C250.389 28.7078 251.195 26.1708 252.806 24.4002C254.43 22.6164 256.781 21.7245 259.858 21.7245C261.944 21.7245 263.813 22.1077 265.463 22.8741L264.196 26.2435C262.452 25.5564 260.993 25.2128 259.818 25.2128C256.411 25.2128 254.707 27.4789 254.707 32.0111C254.707 34.2177 255.13 35.8826 255.975 37.0057C256.82 38.1156 258.062 38.6706 259.699 38.6706C261.561 38.6706 263.331 38.2015 265.008 37.2634V40.9301C263.595 41.7493 261.766 42.1589 259.521 42.1589Z" fill="white"/>
<path d="M284.987 41.8021H281.996L281.165 39.0472H281.006C280.055 40.2496 279.098 41.0688 278.134 41.5048C277.183 41.9409 275.948 42.1589 274.43 42.1589C272.489 42.1589 270.977 41.637 269.894 40.5931C268.811 39.5361 268.269 38.0231 268.269 36.0544C268.269 32.1036 271.326 30.0357 277.441 29.8507L280.828 29.7516V28.7012C280.828 27.4327 280.531 26.4879 279.936 25.8669C279.355 25.2459 278.451 24.9354 277.223 24.9354C275.651 24.9354 273.789 25.4309 271.637 26.4219L270.29 23.429C272.482 22.2927 274.846 21.7245 277.381 21.7245C279.93 21.7245 281.831 22.2795 283.086 23.3894C284.354 24.4861 284.987 26.1972 284.987 28.5228V41.8021ZM272.627 36.1931C272.627 37.0784 272.891 37.7589 273.42 38.2346C273.948 38.7102 274.727 38.9481 275.757 38.9481C277.276 38.9481 278.497 38.5252 279.421 37.6796C280.346 36.8339 280.808 35.6381 280.808 34.0922V32.3877L278.273 32.4868C276.292 32.566 274.852 32.903 273.954 33.4976C273.07 34.079 272.627 34.9775 272.627 36.1931Z" fill="white"/>
<path d="M295.41 35.8165C295.41 36.7943 295.655 37.5342 296.143 38.0364C296.645 38.5252 297.358 38.7697 298.283 38.7697C299.22 38.7697 300.204 38.6111 301.234 38.294V41.4454C300.112 41.9211 298.758 42.1589 297.173 42.1589C293.199 42.1589 291.211 40.0646 291.211 35.876V25.2525H288.517V23.3894L291.409 21.8633L292.835 17.6813H295.41V22.0813H301.036V25.2525H295.41V35.8165Z" fill="white"/>
<path d="M309.363 22.0813V41.8021H305.163V22.0813H309.363ZM309.62 16.829C309.62 17.5557 309.416 18.1239 309.006 18.5335C308.597 18.9431 308.016 19.1479 307.263 19.1479C306.524 19.1479 305.949 18.9431 305.54 18.5335C305.13 18.1239 304.926 17.5557 304.926 16.829C304.926 16.0891 305.13 15.5209 305.54 15.1245C305.949 14.7149 306.524 14.5101 307.263 14.5101C308.016 14.5101 308.597 14.7149 309.006 15.1245C309.416 15.5209 309.62 16.0891 309.62 16.829Z" fill="white"/>
<path d="M323.482 25.1336C320.155 25.1336 318.491 27.3996 318.491 31.9318C318.491 36.464 320.168 38.7301 323.522 38.7301C326.85 38.7301 328.514 36.464 328.514 31.9318C328.514 27.3996 326.836 25.1336 323.482 25.1336ZM314.172 31.912C314.172 28.6879 314.991 26.184 316.629 24.4002C318.266 22.6164 320.544 21.7245 323.462 21.7245C326.381 21.7245 328.672 22.6495 330.336 24.4993C332 26.336 332.832 28.8333 332.832 31.9913C332.832 35.1492 332.006 37.6333 330.356 39.4436C328.705 41.2538 326.407 42.1589 323.462 42.1589C320.689 42.2118 318.438 41.2868 316.708 39.3841C314.978 37.4682 314.133 34.9775 314.172 31.912Z" fill="white"/>
<path d="M355 28.939V41.8021H350.781V29.6723C350.781 28.1396 350.471 27.0032 349.85 26.2633C349.242 25.5101 348.278 25.1336 346.958 25.1336C345.188 25.1336 343.894 25.6621 343.075 26.7192C342.257 27.7762 341.847 29.527 341.847 31.9714V41.8021H337.648V22.0813H340.936L341.511 24.6579H341.729C342.323 23.7197 343.161 22.9996 344.244 22.4975C345.34 21.9822 346.562 21.7245 347.909 21.7245C352.636 21.7245 355 24.1293 355 28.939Z" fill="white"/>
<path fill-rule="evenodd" clip-rule="evenodd" d="M83.4592 14.499C84.6184 14.499 85.5581 15.4393 85.5581 16.5992V36.9012C85.5581 38.0611 84.6184 39.0014 83.4592 39.0014C82.3 39.0014 81.3602 38.0611 81.3602 36.9012V16.5992C81.3602 15.4393 82.3 14.499 83.4592 14.499Z" fill="url(#paint0_linear_0_6123)"/>
<path fill-rule="evenodd" clip-rule="evenodd" d="M83.4578 43.9018C82.685 43.9018 82.0585 44.5287 82.0585 45.302C82.0585 46.0753 82.685 46.7021 83.4578 46.7021C84.2306 46.7021 84.8571 46.0753 84.8571 45.302C84.8571 44.5287 84.2306 43.9018 83.4578 43.9018ZM79.2599 45.302C79.2599 42.9822 81.1394 41.1016 83.4578 41.1016C85.7763 41.1016 87.6557 42.9822 87.6557 45.302C87.6557 47.6218 85.7763 49.5024 83.4578 49.5024C81.1394 49.5024 79.2599 47.6218 79.2599 45.302Z" fill="url(#paint1_linear_0_6123)"/>
<path fill-rule="evenodd" clip-rule="evenodd" d="M21.8897 18.4731C23.049 18.4731 23.9887 19.4134 23.9887 20.5734V38.9154L45.6779 45.216L67.3672 38.9154V20.5734C67.3672 19.4134 68.3069 18.4731 69.4661 18.4731C70.6254 18.4731 71.5651 19.4134 71.5651 20.5734V40.4926C71.5651 41.427 70.9482 42.249 70.0514 42.5095L46.2631 49.4199C45.8809 49.5309 45.475 49.5309 45.0927 49.4199L21.3045 42.5095C20.4077 42.249 19.7908 41.427 19.7908 40.4926V20.5734C19.7908 19.4134 20.7305 18.4731 21.8897 18.4731Z" fill="url(#paint2_linear_0_6123)"/>
<path fill-rule="evenodd" clip-rule="evenodd" d="M42.0964 2.01226C42.4196 3.12618 41.7791 4.29135 40.6659 4.61475L9.82767 13.5731L40.6659 22.5315C41.7791 22.8549 42.4196 24.02 42.0964 25.1339C41.7732 26.2479 40.6087 26.8887 39.4955 26.5653L1.71419 15.59C0.817383 15.3295 0.200439 14.5075 0.200439 13.5731C0.200439 12.6387 0.817383 11.8167 1.71419 11.5562L39.4955 0.580897C40.6087 0.257501 41.7732 0.898346 42.0964 2.01226ZM49.2594 2.01226C49.5826 0.898346 50.7471 0.257501 51.8603 0.580897L89.6416 11.5562C90.5384 11.8167 91.1553 12.6387 91.1553 13.5731C91.1553 14.5075 90.5384 15.3295 89.6416 15.59L51.8603 26.5653C50.7471 26.8887 49.5826 26.2479 49.2594 25.1339C48.9362 24.02 49.5767 22.8549 50.6899 22.5315L81.5281 13.5731L50.6899 4.61475C49.5767 4.29135 48.9362 3.12618 49.2594 2.01226Z" fill="url(#paint3_linear_0_6123)"/>
<defs>
<linearGradient id="paint0_linear_0_6123" x1="84.1588" y1="16.5992" x2="84.1588" y2="39.7015" gradientUnits="userSpaceOnUse">
<stop stop-color="#E3405F"/>
<stop offset="0.807292" stop-color="white"/>
</linearGradient>
<linearGradient id="paint1_linear_0_6123" x1="83.4578" y1="42.5017" x2="83.4578" y2="48.1023" gradientUnits="userSpaceOnUse">
<stop stop-color="#E3405F"/>
<stop offset="0.807292" stop-color="white"/>
</linearGradient>
<linearGradient id="paint2_linear_0_6123" x1="45.6779" y1="20.5734" x2="45.6779" y2="47.403" gradientUnits="userSpaceOnUse">
<stop stop-color="#E3405F"/>
<stop offset="0.807292" stop-color="white"/>
</linearGradient>
<linearGradient id="paint3_linear_0_6123" x1="45.6779" y1="2.59782" x2="45.6779" y2="24.5484" gradientUnits="userSpaceOnUse">
<stop stop-color="#E3405F"/>
<stop offset="0.817708" stop-color="white"/>
</linearGradient>
</defs>
</svg>
